HIERARCHY
ROOT Hips
{
	OFFSET 0.00000 0.00000 0.00000
	CHANNELS 6 Xposition Yposition Zposition Zrotation Yrotation Xrotation 
	JOINT LHipJoint
	{
		OFFSET 0 0 0
		CHANNELS 3 Zrotation Yrotation Xrotation
		JOINT LeftUpLeg
		{
			OFFSET 1.75344 -1.53157 0.77399
			CHANNELS 3 Zrotation Yrotation Xrotation
			JOINT LeftLeg
			{
				OFFSET 2.25415 -6.19323 0.00000
				CHANNELS 3 Zrotation Yrotation Xrotation
				JOINT LeftFoot
				{
					OFFSET 2.30342 -6.32861 0.00000
					CHANNELS 3 Zrotation Yrotation Xrotation
					JOINT LeftToeBase
					{
						OFFSET 0.10958 -0.30108 1.49206
						CHANNELS 3 Zrotation Yrotation Xrotation
						End Site
						{
							OFFSET 0.00000 -0.00000 0.77783
						}
					}
				}
			}
		}
	}
	JOINT RHipJoint
	{
		OFFSET 0 0 0
		CHANNELS 3 Zrotation Yrotation Xrotation
		JOINT RightUpLeg
		{
			OFFSET -1.81912 -1.53156 0.77399
			CHANNELS 3 Zrotation Yrotation Xrotation
			JOINT RightLeg
			{
				OFFSET -2.22882 -6.12365 0.00000
				CHANNELS 3 Zrotation Yrotation Xrotation
				JOINT RightFoot
				{
					OFFSET -2.21943 -6.09785 0.00000
					CHANNELS 3 Zrotation Yrotation Xrotation
					JOINT RightToeBase
					{
						OFFSET -0.18931 -0.52012 1.59379
						CHANNELS 3 Zrotation Yrotation Xrotation
						End Site
						{
							OFFSET -0.00000 -0.00000 0.84686
						}
					}
				}
			}
		}
	}
	JOINT LowerBack
	{
		OFFSET 0 0 0
		CHANNELS 3 Zrotation Yrotation Xrotation
		JOINT Spine
		{
			OFFSET -0.00200 1.66634 -0.14248
			CHANNELS 3 Zrotation Yrotation Xrotation
			JOINT Spine1
			{
				OFFSET -0.00875 1.64542 0.09514
				CHANNELS 3 Zrotation Yrotation Xrotation
				JOINT Neck
				{
					OFFSET 0 0 0
					CHANNELS 3 Zrotation Yrotation Xrotation
					JOINT Neck1
					{
						OFFSET 0.02257 1.59605 0.00839
						CHANNELS 3 Zrotation Yrotation Xrotation
						JOINT Head
						{
							OFFSET -0.10214 1.57530 -0.23335
							CHANNELS 3 Zrotation Yrotation Xrotation
							End Site
							{
								OFFSET -0.03588 1.60717 -0.08062
							}
						}
					}
				}
				JOINT LeftShoulder
				{
					OFFSET 0 0 0
					CHANNELS 3 Zrotation Yrotation Xrotation
					JOINT LeftArm
					{
						OFFSET 2.54983 1.10186 0.40078
						CHANNELS 3 Zrotation Yrotation Xrotation
						JOINT LeftForeArm
						{
							OFFSET 4.28840 -0.00000 0.00000
							CHANNELS 3 Zrotation Yrotation Xrotation
							JOINT LeftHand
							{
								OFFSET 3.06552 -0.00000 -0.00000
								CHANNELS 3 Zrotation Yrotation Xrotation
								JOINT LeftFingerBase
								{
									OFFSET 0 0 0
									CHANNELS 3 Zrotation Yrotation Xrotation
									JOINT LeftHandIndex1
									{
										OFFSET 0.75304 -0.00000 0.00000
										CHANNELS 3 Zrotation Yrotation Xrotation
										End Site
										{
											OFFSET 0.60712 -0.00000 0.00000
										}
									}
								}
								JOINT LThumb
								{
									OFFSET 0 0 0
									CHANNELS 3 Zrotation Yrotation Xrotation
									End Site
									{
										OFFSET 0.61639 -0.00000 0.61639
									}
								}
							}
						}
					}
				}
				JOINT RightShoulder
				{
					OFFSET 0 0 0
					CHANNELS 3 Zrotation Yrotation Xrotation
					JOINT RightArm
					{
						OFFSET -2.60909 1.35448 0.21802
						CHANNELS 3 Zrotation Yrotation Xrotation
						JOINT RightForeArm
						{
							OFFSET -4.52172 -0.00000 -0.00000
							CHANNELS 3 Zrotation Yrotation Xrotation
							JOINT RightHand
							{
								OFFSET -2.89140 -0.00000 0.00000
								CHANNELS 3 Zrotation Yrotation Xrotation
								JOINT RightFingerBase
								{
									OFFSET 0 0 0
									CHANNELS 3 Zrotation Yrotation Xrotation
									JOINT RightHandIndex1
									{
										OFFSET -0.68054 -0.00000 0.00000
										CHANNELS 3 Zrotation Yrotation Xrotation
										End Site
										{
											OFFSET -0.54867 -0.00000 0.00000
										}
									}
								}
								JOINT RThumb
								{
									OFFSET 0 0 0
									CHANNELS 3 Zrotation Yrotation Xrotation
									End Site
									{
										OFFSET -0.55705 -0.00000 0.55705
									}
								}
							}
						}
					}
				}
			}
		}
	}
}
MOTION
Frames: 11
Frame Time: .0083333
7.7161 14.0631 21.6800 -530.7660 -7.6332 -176.4770 0.0000 0.0000 0.0000 -12.9599 -27.1087 -34.8443 10.1210 17.4773 59.8920 2.0723 -20.0951 -27.5939 5.9216 -14.3519 -44.6662 0.0000 0.0000 0.0000 29.3043 5.1678 -26.7027 -8.4636 -16.4499 54.2159 -1.4787 -20.9877 -38.2758 -0.4877 -4.4779 12.4252 -5.4295 3.4320 19.2800 1.5714 3.2800 0.8568 3.9226 1.7590 -10.3135 -11.3889 -6.4949 -6.0944 12.8747 -8.2639 -10.2831 5.6318 -4.3628 -0.9917 0.0000 -0.0000 0.0000 -45.6311 -55.4791 32.0871 60.1450 -56.3484 -34.4617 -0.0000 0.0000 -4.9657 -28.1379 -36.9325 17.8146 -7.1250 0.0000 -0.0000 -31.0694 -6.0920 40.3772 0.0000 -0.0000 0.0000 71.1571 -13.6704 55.3765 -104.9412 59.1394 -72.9021 0.0000 0.0000 1.0839 -0.5588 -63.5988 0.5005 7.1250 -0.0000 -0.0000 86.9775 72.3505 105.3513
7.6975 14.0529 21.6951 -530.7340 -8.4392 -176.0030 0.0000 0.0000 0.0000 -12.7344 -27.0015 -35.8601 10.1153 17.4742 59.8731 2.0067 -20.7354 -27.4348 6.0772 -14.5027 -45.2907 0.0000 0.0000 0.0000 29.2684 6.1189 -27.4293 -8.6437 -16.5729 54.8496 -1.3410 -21.8663 -38.4860 -0.6013 -4.9639 13.8056 -4.9388 3.3623 19.5005 1.4555 3.3047 0.4192 3.4900 1.7788 -10.8927 -11.4592 -6.7359 -6.0987 13.2020 -8.5644 -10.1333 5.7236 -4.5102 -0.8880 -0.0000 0.0000 0.0000 -44.1554 -52.8261 29.6543 55.9495 -55.1303 -30.9936 -0.0000 0.0000 -4.5339 -28.6848 -36.5802 18.0594 -7.1250 0.0000 -0.0000 -31.3317 -5.8640 40.7458 -0.0000 0.0000 0.0000 71.1152 -12.9928 55.7191 -105.3475 59.0910 -73.2508 0.0000 0.0000 1.4300 3.5833 -64.2674 -3.2287 7.1250 -0.0000 -0.0000 87.2675 71.2007 106.9895
7.6620 14.0522 21.7091 -530.6110 -8.9842 -175.4500 0.0000 0.0000 0.0000 -12.4434 -26.6326 -36.8920 10.0971 17.4641 59.8125 1.8879 -21.7456 -27.1308 5.9880 -14.4167 -44.9336 0.0000 0.0000 0.0000 29.2217 6.8763 -28.1067 -8.7348 -16.6340 55.1684 -1.0170 -22.8587 -37.9307 -0.5731 -4.8479 13.4752 -4.2483 3.4452 18.4350 1.4959 3.6253 0.5916 3.0890 1.8834 -10.0905 -11.7643 -7.1123 -5.9133 13.4450 -9.0631 -10.6694 5.8476 -4.7780 -0.9865 -0.0000 -0.0000 0.0000 -42.7999 -51.0460 27.3180 52.3939 -53.9165 -28.0976 -0.0000 0.0000 -3.8038 -29.1633 -35.8892 18.1147 -7.1250 0.0000 -0.0000 -31.6029 -5.3233 40.9742 -0.0000 -0.0000 0.0000 71.0684 -11.8495 55.1424 -106.3298 58.9680 -74.0930 0.0000 0.0000 1.9790 7.2347 -64.5787 -6.5406 7.1250 -0.0000 -0.0000 86.9116 70.2150 107.7655
7.6108 14.0545 21.7255 -530.5510 -9.5622 -174.5310 0.0000 0.0000 0.0000 -12.1023 -26.5612 -38.2339 10.0228 17.4227 59.5647 1.6453 -22.9553 -26.2786 5.6778 -14.1086 -43.6743 0.0000 0.0000 0.0000 28.9494 7.4725 -29.1049 -8.7287 -16.6299 55.1471 -0.7641 -23.4597 -37.3225 -0.5776 -4.8667 13.5288 -3.4333 3.2526 18.2202 1.3123 3.5817 -0.0106 2.4289 1.8544 -10.5693 -11.6273 -7.1044 -5.7039 13.5255 -9.0729 -11.0265 5.8706 -4.8059 -1.1240 -0.0000 -0.0000 0.0000 -42.5995 -48.7849 25.6027 48.2902 -52.2822 -24.8151 -0.0000 0.0000 -1.2682 -29.3527 -35.5849 18.1210 -7.1250 0.0000 -0.0000 -31.7143 -5.0829 41.0571 -0.0000 -0.0000 0.0000 71.2707 -11.9251 55.7626 -108.0512 58.7323 -75.5662 0.0000 0.0000 1.7741 0.9517 -64.3678 -0.8581 7.1250 -0.0000 -0.0000 88.6705 71.9475 107.6180
7.5419 14.0817 21.7385 -530.6250 -10.9277 -173.8310 0.0000 0.0000 0.0000 -12.1582 -27.2718 -38.9327 9.8272 17.3115 58.9093 1.3325 -24.1144 -25.0777 5.3611 -13.7793 -42.3603 0.0000 0.0000 0.0000 28.4886 7.1863 -29.8570 -8.6150 -16.5535 54.7490 -0.7251 -23.6061 -37.2924 -0.6353 -5.0998 14.1933 -2.3654 2.8708 17.3021 1.2943 3.3489 -0.2315 1.8955 1.7022 -10.2085 -11.7995 -7.1983 -4.7598 13.4820 -9.2476 -11.7722 5.9425 -4.9184 -1.4673 -0.0000 0.0000 0.0000 -42.4934 -46.7668 24.7732 45.1923 -50.8624 -22.3878 -0.0000 -0.0000 1.4970 -28.4513 -34.9855 17.2592 -7.1250 0.0000 -0.0000 -31.4092 -4.3810 40.1285 -0.0000 0.0000 0.0000 71.1625 -12.2181 56.5585 -109.9670 58.4387 -77.2012 0.0000 -0.0000 -0.2938 -13.5797 -62.7595 12.1208 7.1250 -0.0000 -0.0000 92.9304 76.2128 107.2018
7.4736 14.1319 21.7426 -530.8410 -12.0911 -173.2580 0.0000 0.0000 0.0000 -12.5345 -27.7636 -39.1054 9.5231 17.1328 57.8823 1.0279 -25.1356 -23.9001 5.1203 -13.5180 -41.3398 0.0000 0.0000 0.0000 27.9086 6.9316 -30.1026 -8.4029 -16.4077 54.0011 -0.7402 -23.6171 -37.3828 -0.6720 -5.2421 14.6002 -1.2853 2.7755 16.2718 1.3271 3.5203 -1.1103 1.2936 1.7613 -10.5394 -13.2311 -7.2873 -0.6908 14.0280 -9.5527 -13.0928 6.5601 -5.0901 -2.3702 0.0000 0.0000 0.0000 -44.9058 -43.5817 26.4070 43.0545 -49.7790 -20.7424 -0.0000 -0.0000 4.3909 -29.2484 -35.1125 17.8536 -7.1250 0.0000 -0.0000 -31.7244 -4.6373 40.8430 0.0000 0.0000 0.0000 70.9148 -14.5129 55.9183 -113.1336 57.8780 -79.8916 0.0000 0.0000 1.5500 -6.3184 -65.0671 5.7337 7.1250 -0.0000 -0.0000 95.0695 73.8685 112.0147
7.4071 14.1916 21.7415 -531.0920 -13.0242 -172.9790 0.0000 0.0000 0.0000 -13.1505 -27.9220 -38.6809 9.1230 16.8862 56.5145 0.6458 -26.3837 -22.4562 4.7733 -13.1238 -39.8337 0.0000 0.0000 0.0000 27.3823 6.4636 -29.8485 -8.0965 -16.1897 52.9094 -0.6831 -23.7266 -37.2168 -0.6895 -5.3085 14.7905 -1.0910 2.3853 17.0210 1.2379 3.0134 -1.0061 1.1926 1.5003 -10.8168 -12.1520 -7.4947 -4.2296 13.4706 -9.6370 -11.5656 5.9913 -5.0828 -1.4272 0.0000 0.0000 0.0000 -43.9942 -40.9057 24.2227 41.2919 -48.8169 -19.4060 -0.0000 -0.0000 6.2369 -30.1169 -34.9702 18.3904 -7.1250 0.0000 -0.0000 -32.0962 -4.6734 41.5566 0.0000 0.0000 0.0000 70.9763 -13.3429 57.2946 -115.1276 57.4744 -81.5766 0.0000 -0.0000 -0.0686 -14.9993 -63.1499 13.4443 7.1250 -0.0000 -0.0000 95.8075 76.5190 109.7646
7.3341 14.2627 21.7440 -531.2510 -13.7878 -172.9550 0.0000 0.0000 0.0000 -13.8594 -27.7872 -37.8810 8.6595 16.5836 54.9051 0.2525 -27.4723 -20.9042 4.4897 -12.7850 -38.5687 0.0000 0.0000 0.0000 26.9921 5.8969 -29.2380 -7.7104 -15.9021 51.5128 -0.5297 -24.0425 -36.7943 -0.7014 -5.3530 14.9182 -0.7328 2.2411 16.9165 1.4049 2.9154 -1.0881 1.1999 1.4404 -10.8356 -12.3696 -7.5445 -4.1424 13.4731 -9.6930 -11.5217 6.0259 -5.0968 -1.4108 -0.0000 0.0000 0.0000 -44.4807 -38.0993 24.0891 39.5975 -47.8296 -18.1403 -0.0000 -0.0000 6.9610 -30.2551 -34.6662 18.3548 -7.1250 0.0000 -0.0000 -32.1876 -4.4272 41.5971 -0.0000 0.0000 0.0000 70.7368 -13.4391 57.4059 -117.2468 57.0000 -83.3588 0.0000 0.0000 1.2838 -6.3773 -65.1127 5.7893 7.1250 -0.0000 -0.0000 95.2602 73.8767 112.1981
7.2570 14.3455 21.7458 -531.3760 -14.5222 -173.0560 0.0000 0.0000 0.0000 -14.6615 -27.5350 -36.8095 8.1573 16.2338 53.1274 0.0521 -27.8654 -20.0145 4.6772 -13.0108 -39.4088 0.0000 0.0000 0.0000 26.6772 5.3443 -28.3172 -7.2594 -15.5465 49.8486 -0.4337 -24.2563 -36.5489 -0.8132 -5.7545 16.0738 -0.2501 2.0339 17.0526 1.5305 2.7518 -1.1672 1.1018 1.3382 -10.9797 -12.4311 -7.5472 -4.1810 13.3426 -9.6919 -11.4788 5.9926 -5.0844 -1.3983 -0.0000 -0.0000 0.0000 -45.0215 -35.3834 24.3572 37.9001 -46.7754 -16.8927 -0.0000 -0.0000 6.9978 -30.3275 -34.3056 18.2478 -7.1250 0.0000 -0.0000 -32.2593 -4.1173 41.5642 -0.0000 -0.0000 0.0000 70.6679 -13.4832 57.8939 -118.9424 56.5852 -84.7775 0.0000 0.0000 2.4116 1.1613 -65.9279 -1.0603 7.1250 -0.0000 -0.0000 93.3802 71.8802 112.6188
7.1821 14.4326 21.7428 -531.4120 -15.1592 -173.2320 0.0000 0.0000 0.0000 -15.3970 -27.0604 -35.5715 7.6231 15.8349 51.1934 0.0376 -27.8340 -19.9071 5.3335 -13.7498 -42.2444 0.0000 0.0000 0.0000 26.5074 4.8313 -27.1648 -6.7503 -15.1180 47.9235 -0.3425 -24.4317 -36.2804 -1.0171 -6.4163 17.9971 0.2953 1.8784 17.1365 1.5890 2.6625 -1.2079 0.8777 1.2642 -11.0482 -12.2355 -7.6121 -4.4219 13.1053 -9.7712 -11.2400 5.8659 -5.1106 -1.3053 -0.0000 0.0000 0.0000 -45.5991 -32.7877 25.0330 36.3533 -45.7547 -15.7751 -0.0000 -0.0000 6.4794 -31.8105 -33.3447 18.8269 -7.1250 0.0000 -0.0000 -32.9739 -3.5734 42.6290 -0.0000 0.0000 0.0000 70.8613 -13.7401 58.6132 -120.6227 56.1417 -86.1765 0.0000 0.0000 3.5230 4.3081 -65.8605 -3.9326 7.1250 -0.0000 -0.0000 91.7486 71.0831 111.8793
7.1010 14.5328 21.7370 -531.4440 -15.4646 -173.4570 0.0000 0.0000 0.0000 -16.1109 -26.2831 -34.1854 7.0520 15.3756 49.0708 -0.0792 -28.0645 -19.3866 5.7006 -14.1318 -43.7680 0.0000 0.0000 0.0000 26.3112 4.5310 -25.7788 -6.1998 -14.6192 45.7785 -0.2353 -24.5274 -35.8201 -1.2497 -7.0875 19.9750 0.8471 1.8336 17.1434 1.5487 2.7144 -1.2641 0.5063 1.2539 -11.0874 -11.9353 -7.7024 -4.5151 12.8672 -9.8909 -10.8402 5.7209 -5.1556 -1.1884 0.0000 0.0000 0.0000 -46.2990 -30.2891 25.9257 34.6924 -44.5913 -14.5970 -0.0000 -0.0000 6.0641 -33.6761 -32.4542 19.6751 -7.1250 0.0000 -0.0000 -33.8231 -3.2383 44.1171 0.0000 0.0000 0.0000 71.0637 -14.0732 59.9658 -121.9580 55.7652 -87.2829 0.0000 0.0000 3.9015 3.3481 -65.9187 -3.0573 7.1250 -0.0000 -0.0000 92.3329 71.3275 112.1951
